<?xml version="1.0" encoding="UTF-8"?>
<!DOCTYPE svg PUBLIC "-//W3C//DTD SVG 1.1//EN" "http://www.w3.org/Graphics/SVG/1.1/DTD/svg11.dtd">
<svg version="1.1" xmlns="http://www.w3.org/2000/svg" xmlns:xlink="http://www.w3.org/1999/xlink" x="0px" y="0px" width="128" height="128" viewBox="0, 0, 128, 128">
  <g id="Background">
    <rect x="0" y="0" width="128" height="128" fill="#000000" fill-opacity="0"/>
  </g>
  <g id="Background">
    <path d="M18.52,6.618 L109.03,6.618 C115.59,6.618 120.952,11.993 120.952,18.569 L120.952,109.304 C120.952,115.88 115.59,121.255 109.03,121.255 L18.52,121.255 C11.961,121.255 6.599,115.88 6.599,109.304 L6.599,18.569 C6.599,11.993 11.961,6.618 18.52,6.618" fill="#727272"/>
    <path d="M89.802,110.559 C89.932,107.078 90.45,103.663 91.314,100.413 C92.678,95.299 94.921,90.591 97.919,86.719 C100.953,82.807 104.623,79.936 108.579,78.279 C110.407,77.513 112.299,77.002 114.221,76.763 L63.501,69.519 z M28.524,6 C29.347,7.511 30.144,8.974 30.964,10.477 C32.584,13.014 34.66,15.071 36.993,16.529 C39.418,18.04 42.147,18.916 44.951,19.021 C47.766,19.124 50.539,18.465 53.032,17.152 C55.393,15.907 57.535,14.064 59.277,11.722 L59.349,6.505 L62.772,6.541 L62.691,12.241 C64.681,15.368 67.571,18.253 71.113,20.731 L71.118,20.726 C75.044,23.466 79.758,25.713 84.926,27.216 C90.099,28.728 95.461,29.432 100.562,29.329 C105.131,29.233 109.516,28.48 113.374,27.09 C115.418,25.425 119.857,22.734 122,21.213 L121.816,25.456 L115.819,29.717 L115.86,29.821 L115.441,29.983 L114.397,30.728 C112.439,32.502 110.751,34.527 109.359,36.743 C107.004,40.485 105.497,44.778 105.041,49.295 C104.591,53.818 105.212,58.335 106.77,62.483 C108.287,66.505 110.7,70.21 113.884,73.243 L121.069,74.266 L121.136,77.075 L120.942,80.527 C117.386,79.755 113.254,80.04 109.894,81.447 C106.491,82.874 103.303,85.383 100.629,88.832 C97.91,92.342 95.87,96.63 94.628,101.297 C93.382,105.968 92.926,111.046 93.367,116.118 L96.753,121.299 L93.066,122 L88.807,115.351 C86.308,112.982 83.414,111.117 80.288,109.836 L80.285,109.841 C76.381,108.244 72.099,107.535 67.782,107.846 C63.456,108.162 59.327,109.498 55.702,111.651 C52.646,113.469 49.923,115.889 47.739,118.795 L46.915,121.71 L43.447,121.471 L44.51,117.415 C44.299,113.442 43.209,109.606 41.386,106.167 C39.455,102.52 36.691,99.311 33.26,96.851 C29.816,94.387 25.877,92.795 21.816,92.148 C18.106,91.557 14.265,91.742 10.552,92.74 L7.45,94.202 L6,91.097 L6.206,90.718 C9.597,88.064 12.312,84.647 14.157,80.802 C16,76.967 17.003,72.665 17.003,68.242 C17.003,63.806 16,59.504 14.149,55.663 C12.302,51.828 9.588,48.416 6.179,45.757 L6.221,44.958 L6.459,41.311 L8.548,42.246 C11.794,41.759 14.878,40.589 17.593,38.879 C20.631,36.96 23.247,34.334 25.165,31.174 C27.079,28.025 28.204,24.49 28.51,20.888 C28.807,17.359 28.316,13.762 27.02,10.386 L24.589,6.126 z M36.159,20.013 L58.585,61.188 L59.206,16.921 C57.805,18.222 56.261,19.322 54.627,20.185 C51.601,21.779 48.247,22.576 44.836,22.45 C41.786,22.337 38.834,21.484 36.159,20.013 z M55.891,67.592 L13.568,48.307 C14.999,50.126 16.228,52.089 17.227,54.175 C19.308,58.493 20.434,63.304 20.434,68.242 C20.434,73.174 19.308,77.978 17.237,82.291 C16.412,84.007 15.44,85.636 14.324,87.176 z M13.585,44.542 L56.198,63.959 L32.017,19.562 C32.004,20.099 31.977,20.635 31.931,21.169 C31.585,25.275 30.289,29.329 28.083,32.962 C25.886,36.573 22.896,39.578 19.411,41.776 C17.597,42.923 15.639,43.853 13.585,44.542 z M61.007,71.97 L49.746,111.705 C51.071,110.581 52.484,109.579 53.965,108.699 C58.048,106.276 62.686,104.773 67.539,104.416 C72.388,104.064 77.191,104.863 81.571,106.655 L81.576,106.664 C82.374,106.992 83.161,107.354 83.932,107.747 z M46.662,110.03 L57.878,70.445 L19.651,88.453 C20.559,88.515 21.46,88.62 22.356,88.763 C26.939,89.496 31.364,91.282 35.241,94.054 C39.121,96.834 42.242,100.453 44.411,104.551 C45.334,106.293 46.09,108.131 46.662,110.03 z M108.562,72.48 C106.437,69.818 104.753,66.842 103.564,63.693 C101.826,59.066 101.134,54.025 101.637,48.962 C102.057,44.854 103.249,40.913 105.09,37.339 L64.477,66.188 z M106.226,32.325 C104.402,32.574 102.53,32.723 100.624,32.758 C95.191,32.866 89.478,32.123 83.971,30.512 C78.43,28.9 73.373,26.49 69.164,23.552 L69.164,23.543 C66.671,21.796 64.465,19.86 62.614,17.784 L61.969,63.764 z" fill="#EBECEC"/>
    <path d="M63.559,34.126 C82.413,34.126 97.698,49.449 97.698,68.345 C97.698,87.243 82.413,102.566 63.559,102.566 C44.708,102.566 29.425,87.243 29.425,68.345 C29.425,49.449 44.708,34.126 63.559,34.126" fill="#EBEDED"/>
    <path d="M63.559,32.406 C73.454,32.406 82.423,36.433 88.911,42.935 C95.397,49.439 99.414,58.426 99.414,68.345 C99.414,78.266 95.397,87.252 88.911,93.755 C82.423,100.259 73.454,104.285 63.559,104.285 C53.668,104.285 44.701,100.259 38.213,93.755 C31.725,87.252 27.71,78.266 27.71,68.345 C27.71,58.431 31.725,49.439 38.213,42.935 C44.701,36.433 53.668,32.406 63.559,32.406 z M86.489,45.363 C80.626,39.488 72.514,35.845 63.559,35.845 C54.61,35.845 46.497,39.488 40.635,45.363 C34.772,51.24 31.14,59.373 31.14,68.345 C31.14,77.323 34.772,85.451 40.635,91.327 C46.497,97.203 54.61,100.846 63.559,100.846 C72.514,100.846 80.626,97.203 86.489,91.327 C92.349,85.451 95.983,77.323 95.983,68.345 C95.983,59.368 92.349,51.24 86.489,45.363" fill="#727272"/>
    <path d="M65.648,66.78 C65.648,65.995 65.292,65.272 64.72,64.753 L64.72,64.748 C64.112,64.189 63.243,63.838 62.281,63.838 C61.321,63.838 60.453,64.189 59.844,64.748 C59.277,65.267 58.922,65.99 58.922,66.78 C58.922,68.856 59.849,70.743 61.339,72.114 C62.865,73.508 64.995,74.389 67.363,74.389 C69.726,74.389 71.861,73.513 73.387,72.114 C74.877,70.743 75.805,68.856 75.805,66.78 C75.805,63.412 74.31,60.357 71.905,58.15 C69.456,55.902 66.053,54.507 62.281,54.507 C58.517,54.507 55.108,55.902 52.664,58.15 C50.259,60.357 48.765,63.412 48.765,66.78 C48.765,71.432 50.826,75.658 54.154,78.709 C57.518,81.799 62.19,83.718 67.363,83.718 C72.531,83.718 77.205,81.799 80.572,78.709 C83.895,75.653 85.957,71.428 85.957,66.78 C85.957,60.839 83.328,55.452 79.083,51.557 C74.801,47.621 68.853,45.184 62.281,45.184 C55.707,45.184 49.764,47.626 45.479,51.557 C41.238,55.452 38.608,60.839 38.608,66.78 C38.608,74.005 41.81,80.563 46.969,85.302 C52.173,90.082 59.39,93.043 67.363,93.043 C75.336,93.043 82.548,90.082 87.753,85.302 C92.918,80.563 96.113,74.01 96.113,66.78 L99.404,66.78 C99.404,75.004 95.915,82.45 90.059,87.83 C84.241,93.174 76.214,96.482 67.363,96.482 C58.512,96.482 50.48,93.174 44.664,87.83 C38.807,82.45 35.177,75.004 35.177,66.78 C35.177,59.848 38.24,53.565 43.174,49.029 C48.072,44.534 54.833,41.744 62.281,41.744 C69.731,41.744 76.494,44.534 81.387,49.029 C86.33,53.565 89.387,59.848 89.387,66.78 C89.387,72.421 86.894,77.543 82.877,81.235 C78.894,84.891 73.405,87.157 67.363,87.157 C61.317,87.157 55.825,84.891 51.849,81.235 C47.829,77.543 45.334,72.431 45.334,66.78 C45.334,62.421 47.258,58.47 50.359,55.624 C53.415,52.812 57.638,51.068 62.281,51.068 C66.926,51.068 71.149,52.812 74.212,55.624 C77.313,58.47 79.235,62.421 79.235,66.78 C79.235,69.853 77.88,72.633 75.701,74.642 L75.697,74.642 C73.554,76.61 70.6,77.828 67.363,77.828 C64.121,77.828 61.169,76.605 59.03,74.642 L59.025,74.642 C56.846,72.633 55.491,69.853 55.491,66.78 C55.491,65.001 56.279,63.381 57.54,62.222 C58.76,61.102 60.443,60.398 62.281,60.398 C64.121,60.398 65.805,61.102 67.026,62.222 L67.026,62.217 C68.295,63.376 69.078,64.997 69.078,66.78 z" fill="#727272"/>
  </g>
  <defs/>
</svg>
